<svg width="17" height="17" viewBox="0 0 17 17" fill="none" xmlns="http://www.w3.org/2000/svg">
<path d="M8.4751 1.73522C10.6084 1.73522 10.8751 1.73522 11.7418 1.80188C13.9418 1.86855 14.9418 2.93522 15.0084 5.06855C15.0751 5.93523 15.0751 6.13522 15.0751 8.26855C15.0751 10.4019 15.0751 10.6686 15.0084 11.4686C14.9418 13.6019 13.8751 14.6686 11.7418 14.7353C10.8751 14.8019 10.6751 14.8019 8.4751 14.8019C6.34177 14.8019 6.0751 14.8019 5.2751 14.7353C3.0751 14.6686 2.0751 13.6019 2.00843 11.4686C1.94177 10.6019 1.94177 10.4019 1.94177 8.26855C1.94177 6.13522 1.94177 5.86856 2.00843 5.06855C2.0751 2.93522 3.14177 1.86855 5.2751 1.80188C6.0751 1.73522 6.34177 1.73522 8.4751 1.73522ZM8.4751 0.268555C6.2751 0.268555 6.00843 0.268555 5.20843 0.335221C2.2751 0.468555 0.675098 2.06855 0.541764 5.00188C0.475098 5.80188 0.475098 6.06855 0.475098 8.26855C0.475098 10.4686 0.475098 10.7353 0.541764 11.5353C0.675098 14.4686 2.2751 16.0686 5.20843 16.2019C6.00843 16.2686 6.2751 16.2686 8.4751 16.2686C10.6751 16.2686 10.9418 16.2686 11.7418 16.2019C14.6751 16.0686 16.2751 14.4686 16.4084 11.5353C16.4751 10.7353 16.4751 10.4686 16.4751 8.26855C16.4751 6.06855 16.4751 5.80188 16.4084 5.00188C16.2751 2.06855 14.6751 0.468555 11.7418 0.335221C10.9418 0.268555 10.6751 0.268555 8.4751 0.268555ZM8.4751 4.13522C6.20843 4.13522 4.34177 6.00188 4.34177 8.26855C4.34177 10.5353 6.20843 12.4019 8.4751 12.4019C10.7418 12.4019 12.6084 10.5353 12.6084 8.26855C12.6084 6.00188 10.7418 4.13522 8.4751 4.13522ZM8.4751 10.9353C7.00843 10.9353 5.80843 9.73522 5.80843 8.26855C5.80843 6.80188 7.00843 5.60188 8.4751 5.60188C9.94177 5.60188 11.1418 6.80188 11.1418 8.26855C11.1418 9.73522 9.94177 10.9353 8.4751 10.9353ZM12.7418 3.06855C12.2084 3.06855 11.8084 3.46855 11.8084 4.00188C11.8084 4.53522 12.2084 4.93522 12.7418 4.93522C13.2751 4.93522 13.6751 4.53522 13.6751 4.00188C13.6751 3.46855 13.2751 3.06855 12.7418 3.06855Z" fill="black"/>
</svg>
