<svg width="147" height="18" viewBox="0 0 147 18" fill="none" xmlns="http://www.w3.org/2000/svg">
<path d="M4.848 16.992V11.856H8.544C12.288 11.856 14.304 9.456 14.304 6.48C14.304 3.48 12.288 0.984001 8.544 0.984001H0V16.992H4.848ZM9.384 6.432C9.384 7.272 8.736 7.824 7.92 7.824H4.848V5.016H7.92C8.736 5.016 9.384 5.568 9.384 6.432Z" fill="white"/>
<path d="M18.5066 9C18.5066 13.92 22.3226 17.28 27.2666 17.28C32.2106 17.28 36.0266 13.92 36.0266 9C36.0266 4.08 32.2106 0.720001 27.2666 0.720001C22.3226 0.720001 18.5066 4.08 18.5066 9ZM31.1066 9C31.1066 11.232 29.5946 13.008 27.2666 13.008C24.9386 13.008 23.4266 11.232 23.4266 9C23.4266 6.768 24.9386 4.992 27.2666 4.992C29.5946 4.992 31.1066 6.768 31.1066 9Z" fill="white"/>
<path d="M40.0016 14.736C41.7056 16.272 44.0336 17.28 47.4416 17.28C51.7376 17.28 54.3536 15.24 54.3536 11.712C54.3536 8.016 50.4416 7.248 47.8016 6.792C46.0976 6.504 45.4496 6.288 45.4496 5.664C45.4496 5.256 45.7136 4.824 46.9136 4.824C48.1856 4.824 49.9856 5.352 51.3776 6.408L53.9696 2.976C52.1456 1.488 49.7936 0.744001 47.1776 0.744001C42.7856 0.744001 40.5296 3.216 40.5296 5.928C40.5296 9.936 44.5616 10.56 47.2016 11.04C48.7856 11.328 49.4576 11.64 49.4576 12.264C49.4576 12.888 48.5936 13.2 47.6816 13.2C45.5216 13.2 43.7216 12.288 42.5216 11.136L40.0016 14.736Z" fill="white"/>
<path d="M71.5684 16.992V12.96H64.2724V10.92H71.4004V6.888H64.2724V5.016H71.5684V0.984001H59.4244V16.992H71.5684Z" fill="white"/>
<path d="M82.0492 16.992V0.984001H77.2012V16.992H82.0492Z" fill="white"/>
<path d="M95.2869 16.992C100.303 16.992 104.047 14.088 104.047 8.976C104.047 3.864 100.303 0.984001 95.2629 0.984001H88.1109V16.992H95.2869ZM92.9589 5.208H95.2869C97.8789 5.208 99.1269 6.816 99.1269 8.976C99.1269 10.992 97.6869 12.768 95.2629 12.768H92.9589V5.208Z" fill="white"/>
<path d="M108.399 9C108.399 13.92 112.215 17.28 117.159 17.28C122.103 17.28 125.919 13.92 125.919 9C125.919 4.08 122.103 0.720001 117.159 0.720001C112.215 0.720001 108.399 4.08 108.399 9ZM120.999 9C120.999 11.232 119.487 13.008 117.159 13.008C114.831 13.008 113.319 11.232 113.319 9C113.319 6.768 114.831 4.992 117.159 4.992C119.487 4.992 120.999 6.768 120.999 9Z" fill="white"/>
<path d="M146.526 16.992V0.984001H141.678V9.048L136.11 0.984001H131.118V16.992H135.966V8.4L141.87 16.992H146.526Z" fill="white"/>
</svg>
