<svg width="20" height="16" viewBox="0 0 20 16" fill="none" xmlns="http://www.w3.org/2000/svg">
<path d="M6.38622 15.725C13.4207 15.725 17.2676 9.98824 17.2676 5.01387C17.2676 4.85088 17.2643 4.68873 17.2566 4.5272C18.0033 3.99587 18.6525 3.33265 19.1645 2.57802C18.4793 2.87771 17.7418 3.07952 16.9683 3.17051C17.7577 2.70449 18.3642 1.96698 18.6501 1.08797C17.9111 1.51934 17.0928 1.83279 16.2218 2.00183C15.5236 1.27016 14.5297 0.8125 13.43 0.8125C11.3178 0.8125 9.60495 2.49851 9.60495 4.57666C9.60495 4.87217 9.63866 5.15933 9.70397 5.43501C6.52571 5.27787 3.70726 3.77967 1.82121 1.50202C1.49239 2.05817 1.30306 2.7047 1.30306 3.39401C1.30306 4.7 1.97831 5.85302 3.00508 6.52772C2.37774 6.50873 1.78835 6.33886 1.27296 6.0567C1.27211 6.07236 1.27211 6.08821 1.27211 6.1047C1.27211 7.92804 2.59061 9.45023 4.34032 9.7952C4.01912 9.88138 3.68118 9.92771 3.33221 9.92771C3.08586 9.92771 2.84628 9.9035 2.61328 9.8599C3.10006 11.3554 4.51205 12.4439 6.18608 12.4746C4.87692 13.4845 3.2279 14.0861 1.4362 14.0861C1.12773 14.0861 0.823285 14.0688 0.523926 14.0339C2.2164 15.1016 4.22604 15.725 6.38622 15.725Z" fill="black"/>
</svg>
